<svg width="32" height="32" viewBox="0 0 32 32" xmlns="http://www.w3.org/2000/svg">
  <rect width="32" height="32" fill="white" rx="3"/>
  
  <!-- Zoo cage bars in background -->
  <rect x="4" y="4" width="1.5" height="24" fill="#3b82f6" opacity="0.3"/>
  <rect x="8" y="4" width="1.5" height="24" fill="#3b82f6" opacity="0.3"/>
  <rect x="22" y="4" width="1.5" height="24" fill="#3b82f6" opacity="0.3"/>
  <rect x="26" y="4" width="1.5" height="24" fill="#3b82f6" opacity="0.3"/>
  
  <!-- Lambda symbol as the main element -->
  <path d="M12 24 L16 12 L18 12 L22 24 L20 24 L19.2 21.5 L16.8 21.5 L16 24 Z M17.2 19 L18.8 19 L18 16.5 Z" fill="#3b82f6" stroke="none"/>
  
  <!-- Small animal silhouette integrated with lambda -->
  <path d="M14 8 Q15 6 16 7 Q17 6 18 8" fill="none" stroke="#3b82f6" stroke-width="1.5" stroke-linecap="round"/>
  
  <!-- Zoo entrance gate top -->
  <rect x="4" y="4" width="24" height="2" fill="#3b82f6" opacity="0.4"/>
  
  <!-- Border -->
  <rect width="32" height="32" fill="none" stroke="#3b82f6" stroke-width="1" rx="3"/>
</svg>